<?xml version="1.0" standalone="no"?><svg xmlns="http://www.w3.org/2000/svg" viewBox="0 0 1440 320"><path fill="#f8f8ff" fill-opacity="1" d="M0,256L40,250.7C80,245,160,235,240,202.7C320,171,400,117,480,128C560,139,640,213,720,234.7C800,256,880,224,960,197.3C1040,171,1120,149,1200,138.7C1280,128,1360,128,1400,128L1440,128L1440,320L1400,320C1360,320,1280,320,1200,320C1120,320,1040,320,960,320C880,320,800,320,720,320C640,320,560,320,480,320C400,320,320,320,240,320C160,320,80,320,40,320L0,320Z"></path></svg>